<svg width="66" height="66" viewBox="0 0 66 66" fill="none" xmlns="http://www.w3.org/2000/svg">
<path d="M19.6482 51.1566C19.0608 50.6616 18.1236 50.556 17.3316 50.3382C15.9192 49.962 14.5002 49.6122 13.0746 49.3086C12.2562 49.1304 11.8932 48.7542 11.8998 47.8632C11.9328 42.1476 11.9262 36.432 11.9064 30.7098C11.9064 29.9244 12.1638 29.5218 12.9756 29.3172C15.5628 28.6506 18.1368 27.9312 20.6778 27.1458C21.351 26.9412 22.0506 26.5188 22.506 25.9974C25.8654 22.1694 29.1654 18.282 32.4852 14.4276C33.4422 13.3188 34.6038 12.705 36.135 13.0416C37.62 13.3782 38.5572 14.2824 38.9928 15.7212C39.3822 16.9884 39.006 18.1104 38.1744 19.0872C36.6894 20.8428 35.1714 22.5654 33.7062 24.3342C33.5676 24.4992 33.4818 24.6972 33.4026 24.9084C33.2772 25.245 33.4554 25.6146 33.7986 25.7202C34.0098 25.7862 34.221 25.839 34.4388 25.839C41.3028 25.8522 48.1668 25.8522 55.0308 25.8522H57.7698C60.2712 25.8522 61.8618 27.159 61.8684 29.2248C61.8816 31.2576 60.2382 32.7426 57.816 32.7492C56.8854 32.7558 55.9548 32.7558 55.0308 32.769H42.2532C41.9958 32.769 41.7384 32.7954 41.481 32.8152C41.0586 32.8548 40.7022 33 40.689 33.1386C40.6758 33.2772 40.9266 33.4554 41.25 33.5346C41.448 33.5874 41.6526 33.627 41.8506 33.627C44.2728 33.6468 46.695 33.627 49.1238 33.6402C51.0246 33.6534 52.3644 34.8084 52.4502 36.4848C52.5294 38.1348 51.4074 39.501 49.5462 39.6066C46.8798 39.7584 44.2002 39.6858 41.5272 39.7254C41.2698 39.7254 41.0124 39.7452 40.7484 39.7716C40.59 39.7848 40.4316 39.8178 40.3062 39.8508C40.0686 39.9168 39.9762 40.227 40.1412 40.3326C40.2336 40.3854 40.3458 40.4382 40.4646 40.4778C40.6626 40.5438 40.8606 40.59 41.0652 40.5966C43.1112 40.623 45.1572 40.6098 47.2098 40.6098C49.038 40.6164 50.127 41.5668 50.1798 43.2234C50.2392 44.847 48.9126 46.266 47.1966 46.2924C44.3586 46.332 41.514 46.2924 38.6694 46.3122C38.4516 46.3122 38.2404 46.3518 38.0292 46.4046C37.6794 46.4838 37.4022 46.6554 37.4088 46.7808C37.4154 46.9062 37.6992 47.058 38.0424 47.1108C38.247 47.1438 38.4582 47.1702 38.6694 47.1702C40.6758 47.19 42.6822 47.1702 44.6886 47.1834C46.2792 47.1966 47.2692 48.0414 47.5332 49.5858C47.751 50.8662 46.926 52.3182 45.6192 52.7472C44.9988 52.9584 44.3124 53.031 43.6524 53.031C37.5936 53.0508 31.5282 53.0574 25.4694 53.0376C23.3508 53.031 21.3708 52.5888 19.6482 51.1566ZM10.2432 31.053V47.9028C10.2432 48.8994 9.4248 49.7046 8.4084 49.7046H5.9598C4.9434 49.7046 4.125 48.8994 4.125 47.9028V31.053C4.125 30.0564 4.9434 29.2512 5.9598 29.2512H8.4084C9.4182 29.2512 10.2432 30.0564 10.2432 31.053Z" fill="#2F2519"/>
</svg>
