<svg width="30" height="30" viewBox="0 0 30 30" fill="none" xmlns="http://www.w3.org/2000/svg">
<path d="M22.9102 28.125C21.7664 28.125 20.1598 27.7113 17.7539 26.3672C14.8283 24.7266 12.5654 23.2119 9.65566 20.3098C6.85019 17.5061 5.48496 15.6908 3.57422 12.2139C1.41562 8.28809 1.78359 6.23028 2.19492 5.35079C2.68476 4.29961 3.40781 3.6709 4.34238 3.04688C4.87321 2.69909 5.43496 2.40095 6.02051 2.15626C6.0791 2.13106 6.13359 2.10704 6.18223 2.08536C6.47227 1.95469 6.91172 1.75723 7.46836 1.96817C7.83984 2.10762 8.17148 2.39297 8.69063 2.90567C9.75527 3.95567 11.2102 6.29415 11.7469 7.44258C12.1072 8.21661 12.3457 8.72754 12.3463 9.30059C12.3463 9.97149 12.0088 10.4889 11.5992 11.0473C11.5225 11.1522 11.4463 11.2523 11.3725 11.3496C10.9266 11.9356 10.8287 12.1049 10.8932 12.4072C11.0238 13.0148 11.9982 14.8236 13.5996 16.4215C15.201 18.0193 16.9576 18.9322 17.5676 19.0623C17.8828 19.1297 18.0557 19.0277 18.6604 18.566C18.7471 18.4998 18.8361 18.4313 18.9293 18.3627C19.5539 17.8981 20.0473 17.5693 20.7023 17.5693H20.7059C21.276 17.5693 21.7641 17.8166 22.5727 18.2244C23.6273 18.7564 26.0361 20.1926 27.0926 21.2584C27.6064 21.7764 27.893 22.1068 28.033 22.4777C28.2439 23.0361 28.0453 23.4738 27.9158 23.7668C27.8941 23.8154 27.8701 23.8688 27.8449 23.9279C27.5983 24.5124 27.2984 25.073 26.949 25.6025C26.3262 26.5342 25.6951 27.2555 24.6416 27.7459C24.1006 28.0018 23.5086 28.1314 22.9102 28.125Z" fill="#2F2519"/>
</svg>
