<svg width="23" height="23" viewBox="0 0 23 23" fill="none" xmlns="http://www.w3.org/2000/svg">
<path d="M3.77328 18.4579C4.45407 17.7772 4.61992 17.3019 4.81192 16.7517C5.02723 16.1346 5.27129 15.4352 6.16995 14.5365C7.06866 13.6378 7.768 13.3938 8.38505 13.1785C8.78809 13.0379 9.15101 12.911 9.58384 12.5858C8.66491 11.7464 7.39488 11.3872 5.98546 11.5739C4.57554 11.7605 3.1844 12.4779 2.06832 13.594C0.952186 14.7101 0.234784 16.1013 0.0481783 17.5112C-0.0881596 18.5412 0.0670904 19.4968 0.487963 20.2954C1.09378 19.8361 1.60364 19.6582 2.06706 19.4965C2.61731 19.3045 3.09249 19.1387 3.77328 18.4579V18.4579Z" fill="#919191"/>
<path d="M8.82903 14.451C8.27883 14.6429 7.80365 14.8087 7.1229 15.4895C6.44215 16.1703 6.2763 16.6455 6.08431 17.1957C5.869 17.8128 5.62494 18.5122 4.72623 19.4109C3.82752 20.3096 3.12813 20.5537 2.51104 20.769C2.108 20.9096 1.74512 21.0365 1.31226 21.3617C2.07242 22.056 3.07252 22.4219 4.19332 22.4219C4.4275 22.4219 4.66698 22.406 4.91054 22.3737C6.32046 22.1871 7.7116 21.4696 8.82768 20.3536C9.94381 19.2375 10.6612 17.8463 10.8478 16.4364C10.9842 15.4063 10.8289 14.4508 10.408 13.6522C9.80222 14.1114 9.2924 14.2892 8.82903 14.451V14.451Z" fill="#919191"/>
<path d="M15.8772 18.4579C16.558 17.7772 16.7238 17.3019 16.9158 16.7517C17.1311 16.1346 17.3752 15.4352 18.2739 14.5365C19.1726 13.6378 19.8719 13.3938 20.489 13.1785C20.892 13.0379 21.2549 12.911 21.6877 12.5858C20.7688 11.7464 19.4988 11.3872 18.0894 11.5739C16.6795 11.7605 15.2883 12.4779 14.1722 13.594C13.0561 14.7101 12.3387 16.1013 12.1521 17.5112C12.0158 18.5412 12.171 19.4968 12.5919 20.2954C13.1977 19.8361 13.7076 19.6582 14.171 19.4965C14.7212 19.3045 15.1964 19.1387 15.8772 18.4579V18.4579Z" fill="#919191"/>
<path d="M20.933 14.451C20.3828 14.6429 19.9076 14.8087 19.2268 15.4895C18.5461 16.1703 18.3802 16.6455 18.1882 17.1957C17.9729 17.8128 17.7289 18.5122 16.8302 19.4109C15.9315 20.3096 15.2321 20.5537 14.615 20.769C14.2119 20.9096 13.8491 21.0365 13.4162 21.3617C14.1764 22.056 15.1765 22.4219 16.2973 22.4219C16.5314 22.4219 16.7709 22.406 17.0145 22.3737C18.4244 22.1871 19.8155 21.4696 20.9316 20.3536C22.0478 19.2375 22.7652 17.8463 22.9518 16.4364C23.0881 15.4063 22.9329 14.4508 22.512 13.6522C21.9062 14.1114 21.3963 14.2892 20.933 14.451V14.451Z" fill="#919191"/>
<path d="M12.113 7.51039C12.7938 6.82959 12.9596 6.35436 13.1516 5.80412C13.367 5.18707 13.611 4.48768 14.5097 3.58897C15.4084 2.69026 16.1077 2.4462 16.7248 2.23094C17.1278 2.09029 17.4907 1.96347 17.9236 1.63819C17.0046 0.798872 15.7346 0.439677 14.3252 0.626327C12.9153 0.812933 11.5241 1.53038 10.408 2.64647C9.29191 3.76255 8.57451 5.15369 8.3879 6.56361C8.25156 7.59367 8.40681 8.5492 8.82768 9.34783C9.4335 8.88859 9.94337 8.71065 10.4068 8.54893C10.957 8.35698 11.4322 8.19118 12.113 7.51039V7.51039Z" fill="#919191"/>
<path d="M17.1688 3.50339C16.6186 3.69534 16.1434 3.86115 15.4627 4.54194C14.7819 5.22273 14.6161 5.69791 14.4241 6.24816C14.2088 6.86521 13.9647 7.5646 13.066 8.46335C12.1673 9.36206 11.4679 9.60612 10.8508 9.82143C10.4478 9.96208 10.0849 10.0889 9.65201 10.4142C10.4122 11.1084 11.4123 11.4743 12.5331 11.4743C12.7673 11.4743 13.0067 11.4584 13.2503 11.4261C14.6602 11.2395 16.0514 10.5221 17.1674 9.40599C18.2836 8.28991 19.001 6.89877 19.1876 5.48885C19.3239 4.45874 19.1687 3.50321 18.7478 2.70459C18.142 3.16378 17.6322 3.34172 17.1688 3.50339V3.50339Z" fill="#919191"/>
</svg>
