<svg width="23" height="30" viewBox="0 0 23 30" fill="none" xmlns="http://www.w3.org/2000/svg">
<path d="M22.2813 10.9989C22.2813 20.2243 11.2813 29.4503 11.2813 29.4503C11.2813 29.4503 0.28125 20.2243 0.28125 10.9989C0.28125 8.20123 1.44017 5.51816 3.50308 3.53992C5.56598 1.56168 8.36387 0.450317 11.2813 0.450317C14.1986 0.450317 16.9965 1.56168 19.0594 3.53992C21.1223 5.51816 22.2813 8.20123 22.2813 10.9989V10.9989Z" fill="#2F2519"/>
<path d="M4.79907 22.3944C6.68814 24.9637 8.86149 27.3294 11.2812 29.4504C11.2812 29.4504 20.5003 21.7148 22.0544 13.3262C17.7885 17.8671 11.5463 21.1622 4.79907 22.3944Z" fill="#584836"/>
<path d="M11.2815 19.4041C16.1994 19.4041 20.1862 15.5809 20.1862 10.8647C20.1862 6.14862 16.1994 2.32544 11.2815 2.32544C6.36351 2.32544 2.37671 6.14862 2.37671 10.8647C2.37671 15.5809 6.36351 19.4041 11.2815 19.4041Z" fill="#EEEEEE"/>
<path d="M9.39911 9.35773L10.0203 8.51335C9.78673 8.34105 9.70606 8.20342 9.70973 8.13812C9.71392 8.03766 9.87106 7.87943 10.0203 7.7865C10.2443 7.65107 10.429 7.46357 10.5572 7.24139C10.6854 7.01921 10.753 6.76957 10.7537 6.51565C10.7253 6.2762 10.6408 6.04601 10.5066 5.84229C10.3723 5.63857 10.1918 5.46659 9.97844 5.33923L9.43682 6.23737C9.54839 6.30618 9.70554 6.46441 9.70973 6.56488C9.70973 6.63018 9.63273 6.76831 9.44101 6.91248C9.22724 7.03911 9.04611 7.2105 8.91122 7.4138C8.77633 7.6171 8.69117 7.84703 8.66211 8.08638C8.66309 8.34072 8.73119 8.59068 8.86006 8.81298C8.98892 9.03528 9.17436 9.22268 9.39911 9.35773V9.35773Z" fill="#ACA6A0"/>
<path d="M12.0183 9.35773L12.6395 8.51335C12.4059 8.34105 12.3252 8.20342 12.3289 8.13812C12.3331 8.03766 12.4902 7.87943 12.6395 7.7865C12.8635 7.65107 13.0481 7.46357 13.1764 7.24139C13.3046 7.01921 13.3721 6.76957 13.3728 6.51565C13.3444 6.2762 13.26 6.04601 13.1257 5.84229C12.9915 5.63857 12.8109 5.46659 12.5976 5.33923L12.056 6.23737C12.1675 6.30618 12.3247 6.46441 12.3289 6.56488C12.3315 6.63018 12.2519 6.76831 12.0602 6.91248C11.8464 7.03911 11.6653 7.2105 11.5304 7.4138C11.3955 7.6171 11.3103 7.84703 11.2812 8.08638C11.2822 8.34072 11.3503 8.59068 11.4792 8.81298C11.6081 9.03528 11.7935 9.22268 12.0183 9.35773V9.35773Z" fill="#ACA6A0"/>
<path d="M14.6374 9.35773L15.2586 8.51335C15.025 8.34105 14.9443 8.20342 14.948 8.13812C14.9522 8.03766 15.1093 7.87943 15.2586 7.7865C15.4826 7.65107 15.6673 7.46357 15.7955 7.24139C15.9237 7.01921 15.9913 6.76957 15.992 6.51565C15.9636 6.2762 15.8791 6.04601 15.7449 5.84229C15.6106 5.63857 15.4301 5.46659 15.2167 5.33923L14.6751 6.23737C14.7867 6.30618 14.9438 6.46441 14.948 6.56488C14.9506 6.63018 14.871 6.76831 14.6793 6.91248C14.4655 7.03911 14.2844 7.2105 14.1495 7.4138C14.0146 7.6171 13.9294 7.84703 13.9004 8.08638C13.9014 8.34072 13.9695 8.59068 14.0983 8.81298C14.2272 9.03528 14.4126 9.22268 14.6374 9.35773V9.35773Z" fill="#ACA6A0"/>
<path d="M7.61444 10.3624C7.61444 10.5397 7.62544 10.714 7.63801 10.8848C7.17555 10.8195 6.7043 10.9219 6.31644 11.1722C5.30444 11.8518 5.24211 13.3823 6.17344 14.6607C6.43371 15.0558 6.78763 15.3863 7.20635 15.6253C7.62507 15.8643 8.09676 16.005 8.58297 16.036C8.96027 16.0401 9.32954 15.9315 9.63949 15.7251L9.64263 15.7221C9.82566 15.9558 10.023 16.1789 10.2335 16.3902H14.424C14.424 16.3902 17.043 13.8786 17.043 10.3624H7.61444ZM9.04025 14.9018C8.52692 15.2464 7.60711 14.8717 7.03197 14.0846C6.45682 13.2974 6.4034 12.34 6.91725 11.9954C7.04959 11.9097 7.20649 11.8656 7.36616 11.8694C7.51249 11.8718 7.65742 11.8973 7.79516 11.9447C8.03456 12.9889 8.45984 13.9856 9.0523 14.8913C9.04654 14.8943 9.04444 14.8988 9.04025 14.9018V14.9018Z" fill="#ACA6A0"/>
</svg>
