<svg width="26" height="26" viewBox="0 0 26 26" fill="none" xmlns="http://www.w3.org/2000/svg">
<path d="M18.6875 1.625H7.3125C6.45084 1.62594 5.62473 1.96865 5.01544 2.57794C4.40615 3.18723 4.06344 4.01334 4.0625 4.875V21.125C4.06344 21.9867 4.40615 22.8128 5.01544 23.4221C5.62473 24.0313 6.45084 24.3741 7.3125 24.375H18.6875C19.5492 24.3741 20.3753 24.0313 20.9846 23.4221C21.5938 22.8128 21.9366 21.9867 21.9375 21.125V4.875C21.9366 4.01334 21.5938 3.18723 20.9846 2.57794C20.3753 1.96865 19.5492 1.62594 18.6875 1.625ZM13 15.4375H8.9375C8.72201 15.4375 8.51535 15.3519 8.36298 15.1995C8.2106 15.0472 8.125 14.8405 8.125 14.625C8.125 14.4095 8.2106 14.2028 8.36298 14.0505C8.51535 13.8981 8.72201 13.8125 8.9375 13.8125H13C13.2155 13.8125 13.4222 13.8981 13.5745 14.0505C13.7269 14.2028 13.8125 14.4095 13.8125 14.625C13.8125 14.8405 13.7269 15.0472 13.5745 15.1995C13.4222 15.3519 13.2155 15.4375 13 15.4375ZM17.0625 11.375H8.9375C8.72201 11.375 8.51535 11.2894 8.36298 11.137C8.2106 10.9847 8.125 10.778 8.125 10.5625C8.125 10.347 8.2106 10.1403 8.36298 9.98798C8.51535 9.8356 8.72201 9.75 8.9375 9.75H17.0625C17.278 9.75 17.4847 9.8356 17.637 9.98798C17.7894 10.1403 17.875 10.347 17.875 10.5625C17.875 10.778 17.7894 10.9847 17.637 11.137C17.4847 11.2894 17.278 11.375 17.0625 11.375ZM17.0625 7.3125H8.9375C8.72201 7.3125 8.51535 7.2269 8.36298 7.07452C8.2106 6.92215 8.125 6.71549 8.125 6.5C8.125 6.28451 8.2106 6.07785 8.36298 5.92548C8.51535 5.7731 8.72201 5.6875 8.9375 5.6875H17.0625C17.278 5.6875 17.4847 5.7731 17.637 5.92548C17.7894 6.07785 17.875 6.28451 17.875 6.5C17.875 6.71549 17.7894 6.92215 17.637 7.07452C17.4847 7.2269 17.278 7.3125 17.0625 7.3125Z" fill="#2F2519"/>
</svg>
