<svg width="23" height="23" viewBox="0 0 23 23" fill="none" xmlns="http://www.w3.org/2000/svg">
<path d="M19.3036 4.10718H7.80358C6.82322 4.10718 5.88302 4.49662 5.18981 5.18984C4.49659 5.88305 4.10715 6.82325 4.10715 7.80361V19.3036C4.10715 20.284 4.49659 21.2242 5.18981 21.9174C5.88302 22.6106 6.82322 23 7.80358 23H19.3036C20.2839 23 21.2241 22.6106 21.9173 21.9174C22.6106 21.2242 23 20.284 23 19.3036V7.80361C23 6.82325 22.6106 5.88305 21.9173 5.18984C21.2241 4.49662 20.2839 4.10718 19.3036 4.10718V4.10718ZM17.6376 14.375H14.375V17.6376C14.375 18.0797 14.0351 18.4591 13.5931 18.4812C13.482 18.4865 13.371 18.4692 13.2668 18.4304C13.1626 18.3916 13.0674 18.3321 12.9869 18.2553C12.9064 18.1786 12.8423 18.0864 12.7985 17.9842C12.7547 17.882 12.7322 17.7719 12.7321 17.6607V14.375H9.46954C9.0275 14.375 8.64811 14.0352 8.62603 13.5931C8.62068 13.4821 8.63793 13.3711 8.67675 13.2669C8.71556 13.1627 8.77513 13.0674 8.85183 12.9869C8.92854 12.9064 9.02079 12.8424 9.123 12.7986C9.22521 12.7548 9.33524 12.7322 9.44643 12.7322H12.7321V9.46957C12.7321 9.02753 13.072 8.64814 13.514 8.62606C13.6251 8.62071 13.7361 8.63796 13.8403 8.67678C13.9445 8.71559 14.0397 8.77516 14.1202 8.85186C14.2007 8.92857 14.2648 9.02082 14.3086 9.12303C14.3524 9.22524 14.375 9.33527 14.375 9.44646V12.7322H17.6607C17.772 12.732 17.8821 12.7545 17.9845 12.7983C18.0868 12.842 18.1792 12.9061 18.256 12.9866C18.3328 13.0671 18.3925 13.1624 18.4313 13.2666C18.4702 13.3709 18.4875 13.482 18.4821 13.5931C18.4606 14.0352 18.0796 14.375 17.6376 14.375Z" fill="#E3D1BE"/>
<path d="M18.6813 2.46429C18.4258 1.74412 17.9536 1.12067 17.3297 0.679468C16.7058 0.238265 15.9606 0.000922571 15.1964 0H3.69643C2.71607 0 1.77587 0.389444 1.08266 1.08266C0.389444 1.77587 0 2.71607 0 3.69643V15.1964C0.000922571 15.9606 0.238265 16.7058 0.679468 17.3297C1.12067 17.9536 1.74412 18.4258 2.46429 18.6813V6.57143C2.46429 5.48215 2.897 4.43748 3.66724 3.66724C4.43748 2.897 5.48215 2.46429 6.57143 2.46429H18.6813Z" fill="#E3D1BE"/>
</svg>
