<svg width="24" height="24" viewBox="0 0 24 24" fill="none" xmlns="http://www.w3.org/2000/svg">
<path d="M23.4005 0.91528C23.3197 0.82651 23.2217 0.755041 23.1126 0.705193C23.0034 0.655345 22.8852 0.628152 22.7652 0.625258C22.6452 0.622364 22.5259 0.643829 22.4144 0.688356C22.3029 0.732882 22.2017 0.799546 22.1167 0.884319L21.4328 1.56492C21.3499 1.64786 21.3033 1.76032 21.3033 1.87757C21.3033 1.99483 21.3499 2.10729 21.4328 2.19023L22.0597 2.81609C22.1008 2.85738 22.1497 2.89015 22.2035 2.91251C22.2573 2.93486 22.315 2.94637 22.3732 2.94637C22.4315 2.94637 22.4892 2.93486 22.543 2.91251C22.5968 2.89015 22.6456 2.85738 22.6867 2.81609L23.3535 2.15263C23.6907 1.81593 23.7223 1.26747 23.4005 0.91528Z" fill="#919191"/>
<path d="M20.05 2.94713L10.0693 12.9101C10.0088 12.9704 9.96483 13.0452 9.94161 13.1274L9.47995 14.5024C9.46889 14.5397 9.46811 14.5793 9.47769 14.617C9.48726 14.6548 9.50684 14.6892 9.53436 14.7167C9.56187 14.7442 9.59631 14.7638 9.63402 14.7734C9.67174 14.783 9.71134 14.7822 9.74865 14.7711L11.1226 14.3095C11.2048 14.2862 11.2796 14.2423 11.3398 14.1817L21.3028 4.19996C21.395 4.1068 21.4467 3.98104 21.4467 3.84999C21.4467 3.71894 21.395 3.59317 21.3028 3.50001L20.7527 2.94713C20.6594 2.85411 20.533 2.80188 20.4013 2.80188C20.2696 2.80188 20.1432 2.85411 20.05 2.94713Z" fill="#919191"/>
<path d="M19.3312 8.67831L12.5921 15.4307C12.3317 15.6918 12.0115 15.8855 11.6594 15.9952L10.2275 16.4745C9.88762 16.5705 9.52833 16.5741 9.18663 16.485C8.84492 16.3959 8.53316 16.2173 8.28346 15.9676C8.03376 15.7179 7.85515 15.4061 7.76605 15.0644C7.67694 14.7227 7.68056 14.3634 7.77653 14.0236L8.25588 12.5916C8.36521 12.2396 8.55857 11.9195 8.81927 11.6589L15.5716 4.91869C15.6335 4.85687 15.6757 4.77807 15.6928 4.69228C15.7099 4.60649 15.7012 4.51755 15.6678 4.4367C15.6343 4.35586 15.5777 4.28675 15.5049 4.23811C15.4322 4.18948 15.3467 4.16349 15.2592 4.16345H3.72114C2.89999 4.16345 2.11248 4.48965 1.53184 5.07029C0.9512 5.65094 0.625 6.43845 0.625 7.25961V20.5288C0.625 21.35 0.9512 22.1375 1.53184 22.7181C2.11248 23.2988 2.89999 23.625 3.72114 23.625H16.9903C17.8115 23.625 18.599 23.2988 19.1796 22.7181C19.7603 22.1375 20.0865 21.35 20.0865 20.5288V8.99069C20.0864 8.9032 20.0604 8.8177 20.0118 8.74498C19.9632 8.67226 19.894 8.6156 19.8132 8.58217C19.7324 8.54873 19.6434 8.54002 19.5576 8.55713C19.4718 8.57424 19.393 8.61641 19.3312 8.67831Z" fill="#919191"/>
</svg>
