<svg width="23" height="23" viewBox="0 0 23 23" fill="none" xmlns="http://www.w3.org/2000/svg">
<path d="M16.8906 7.1875H12.2188V14.0772L14.5857 11.7107C14.7216 11.5816 14.9025 11.5107 15.0899 11.5131C15.2774 11.5155 15.4564 11.591 15.589 11.7235C15.7215 11.8561 15.797 12.0351 15.7994 12.2226C15.8018 12.41 15.7309 12.5909 15.6018 12.7268L12.0081 16.3206C11.8733 16.4553 11.6905 16.5309 11.5 16.5309C11.3095 16.5309 11.1267 16.4553 10.9919 16.3206L7.39818 12.7268C7.26908 12.5909 7.19817 12.41 7.20057 12.2226C7.20297 12.0351 7.27849 11.8561 7.41103 11.7235C7.54357 11.591 7.72264 11.5155 7.91006 11.5131C8.09748 11.5107 8.27843 11.5816 8.41432 11.7107L10.7812 14.0772V7.1875H6.10938C5.44241 7.18821 4.80296 7.45348 4.33135 7.9251C3.85973 8.39671 3.59446 9.03616 3.59375 9.70312V19.0469C3.59446 19.7138 3.85973 20.3533 4.33135 20.8249C4.80296 21.2965 5.44241 21.5618 6.10938 21.5625H16.8906C17.5576 21.5618 18.197 21.2965 18.6687 20.8249C19.1403 20.3533 19.4055 19.7138 19.4062 19.0469V9.70312C19.4055 9.03616 19.1403 8.39671 18.6687 7.9251C18.197 7.45348 17.5576 7.18821 16.8906 7.1875V7.1875Z" fill="#919191"/>
<path d="M12.2188 2.15625C12.2188 1.96563 12.143 1.78281 12.0082 1.64802C11.8734 1.51323 11.6906 1.4375 11.5 1.4375C11.3094 1.4375 11.1266 1.51323 10.9918 1.64802C10.857 1.78281 10.7812 1.96563 10.7812 2.15625V7.1875H12.2188V2.15625Z" fill="#919191"/>
</svg>
