<svg width="23" height="23" viewBox="0 0 23 23" fill="none" xmlns="http://www.w3.org/2000/svg">
<path d="M11.7498 4.5497C11.6829 4.48572 11.5939 4.45001 11.5014 4.45001C11.4088 4.45001 11.3198 4.48572 11.253 4.5497L2.98285 12.4501C2.94773 12.4837 2.91978 12.5241 2.90071 12.5688C2.88164 12.6135 2.87184 12.6616 2.87189 12.7102L2.87054 20.125C2.87054 20.5063 3.02199 20.8719 3.29158 21.1415C3.56116 21.4111 3.9268 21.5625 4.30804 21.5625H8.62504C8.81566 21.5625 8.99848 21.4868 9.13327 21.352C9.26806 21.2172 9.34379 21.0344 9.34379 20.8438V14.7344C9.34379 14.6391 9.38165 14.5477 9.44905 14.4803C9.51644 14.4129 9.60785 14.375 9.70316 14.375H13.2969C13.3922 14.375 13.4836 14.4129 13.551 14.4803C13.6184 14.5477 13.6563 14.6391 13.6563 14.7344V20.8438C13.6563 21.0344 13.732 21.2172 13.8668 21.352C14.0016 21.4868 14.1844 21.5625 14.375 21.5625H18.6902C19.0715 21.5625 19.4371 21.4111 19.7067 21.1415C19.9763 20.8719 20.1277 20.5063 20.1277 20.125V12.7102C20.1278 12.6616 20.118 12.6135 20.0989 12.5688C20.0798 12.5241 20.0519 12.4837 20.0168 12.4501L11.7498 4.5497Z" fill="#919191"/>
<path d="M22.0526 10.9677L18.6925 7.75307V2.875C18.6925 2.68438 18.6167 2.50156 18.4819 2.36677C18.3471 2.23198 18.1643 2.15625 17.9737 2.15625H15.8175C15.6268 2.15625 15.444 2.23198 15.3092 2.36677C15.1744 2.50156 15.0987 2.68438 15.0987 2.875V4.3125L12.4968 1.82473C12.2534 1.57855 11.8913 1.4375 11.5 1.4375C11.1101 1.4375 10.7489 1.57855 10.5054 1.82518L0.950564 10.9668C0.67115 11.2363 0.636111 11.6797 0.890369 11.9717C0.954216 12.0454 1.03239 12.1053 1.12014 12.1479C1.20789 12.1904 1.30338 12.2146 1.40079 12.2191C1.4982 12.2235 1.5955 12.2081 1.68676 12.1738C1.77803 12.1394 1.86135 12.0869 1.93166 12.0193L11.2529 3.11219C11.3198 3.04821 11.4088 3.0125 11.5014 3.0125C11.5939 3.0125 11.6829 3.04821 11.7498 3.11219L21.072 12.0193C21.2093 12.151 21.3932 12.2229 21.5834 12.2192C21.7737 12.2155 21.9547 12.1365 22.0868 11.9995C22.3626 11.7138 22.3397 11.2422 22.0526 10.9677Z" fill="#919191"/>
</svg>
