<svg width="36" height="36" viewBox="0 0 36 36" fill="none" xmlns="http://www.w3.org/2000/svg">
<path d="M10.7172 27.9036C10.3968 27.6336 9.8856 27.576 9.4536 27.4572C8.6832 27.252 7.9092 27.0612 7.1316 26.8956C6.6852 26.7984 6.4872 26.5932 6.4908 26.1072C6.5088 22.9896 6.5052 19.872 6.4944 16.7508C6.4944 16.3224 6.6348 16.1028 7.0776 15.9912C8.4888 15.6276 9.8928 15.2352 11.2788 14.8068C11.646 14.6952 12.0276 14.4648 12.276 14.1804C14.1084 12.0924 15.9084 9.972 17.7192 7.8696C18.2412 7.2648 18.8748 6.93 19.71 7.1136C20.52 7.2972 21.0312 7.7904 21.2688 8.5752C21.4812 9.2664 21.276 9.8784 20.8224 10.4112C20.0124 11.3688 19.1844 12.3084 18.3852 13.2732C18.3096 13.3632 18.2628 13.4712 18.2196 13.5864C18.1512 13.77 18.2484 13.9716 18.4356 14.0292C18.5508 14.0652 18.666 14.094 18.7848 14.094C22.5288 14.1012 26.2728 14.1012 30.0168 14.1012H31.5108C32.8752 14.1012 33.7428 14.814 33.7464 15.9408C33.7536 17.0496 32.8572 17.8596 31.536 17.8632C31.0284 17.8668 30.5208 17.8668 30.0168 17.874H23.0472C22.9068 17.874 22.7664 17.8884 22.626 17.8992C22.3956 17.9208 22.2012 18 22.194 18.0756C22.1868 18.1512 22.3236 18.2484 22.5 18.2916C22.608 18.3204 22.7196 18.342 22.8276 18.342C24.1488 18.3528 25.47 18.342 26.7948 18.3492C27.8316 18.3564 28.5624 18.9864 28.6092 19.9008C28.6524 20.8008 28.0404 21.546 27.0252 21.6036C25.5708 21.6864 24.1092 21.6468 22.6512 21.6684C22.5108 21.6684 22.3704 21.6792 22.2264 21.6936C22.14 21.7008 22.0536 21.7188 21.9852 21.7368C21.8556 21.7728 21.8052 21.942 21.8952 21.9996C21.9456 22.0284 22.0068 22.0572 22.0716 22.0788C22.1796 22.1148 22.2876 22.14 22.3992 22.1436C23.5152 22.158 24.6312 22.1508 25.7508 22.1508C26.748 22.1544 27.342 22.6728 27.3708 23.5764C27.4032 24.462 26.6796 25.236 25.7436 25.2504C24.1956 25.272 22.644 25.2504 21.0924 25.2612C20.9736 25.2612 20.8584 25.2828 20.7432 25.3116C20.5524 25.3548 20.4012 25.4484 20.4048 25.5168C20.4084 25.5852 20.5632 25.668 20.7504 25.6968C20.862 25.7148 20.9772 25.7292 21.0924 25.7292C22.1868 25.74 23.2812 25.7292 24.3756 25.7364C25.2432 25.7436 25.7832 26.2044 25.9272 27.0468C26.046 27.7452 25.596 28.5372 24.8832 28.7712C24.5448 28.8864 24.1704 28.926 23.8104 28.926C20.5056 28.9368 17.1972 28.9404 13.8924 28.9296C12.7368 28.926 11.6568 28.6848 10.7172 27.9036ZM5.5872 16.938V26.1288C5.5872 26.6724 5.1408 27.1116 4.5864 27.1116H3.2508C2.6964 27.1116 2.25 26.6724 2.25 26.1288V16.938C2.25 16.3944 2.6964 15.9552 3.2508 15.9552H4.5864C5.1372 15.9552 5.5872 16.3944 5.5872 16.938Z" fill="#2F2519"/>
</svg>
