<svg width="23" height="23" viewBox="0 0 23 23" fill="none" xmlns="http://www.w3.org/2000/svg">
<path d="M16.8906 7.90625H12.2188V14.4199C12.2188 14.6105 12.143 14.7934 12.0082 14.9282C11.8734 15.0629 11.6906 15.1387 11.5 15.1387C11.3094 15.1387 11.1266 15.0629 10.9918 14.9282C10.857 14.7934 10.7812 14.6105 10.7812 14.4199V7.90625H6.10938C5.44241 7.90696 4.80296 8.17223 4.33135 8.64385C3.85973 9.11546 3.59446 9.75491 3.59375 10.4219V19.0469C3.59446 19.7138 3.85973 20.3533 4.33135 20.8249C4.80296 21.2965 5.44241 21.5618 6.10938 21.5625H16.8906C17.5576 21.5618 18.197 21.2965 18.6687 20.8249C19.1403 20.3533 19.4055 19.7138 19.4062 19.0469V10.4219C19.4055 9.75491 19.1403 9.11546 18.6687 8.64385C18.197 8.17223 17.5576 7.90696 16.8906 7.90625Z" fill="#919191"/>
<path d="M12.2187 3.89158L14.5857 6.25807C14.7215 6.38717 14.9025 6.45808 15.0899 6.45568C15.2773 6.45328 15.4564 6.37776 15.5889 6.24522C15.7215 6.11268 15.797 5.93361 15.7994 5.74619C15.8018 5.55877 15.7309 5.37782 15.6018 5.24194L12.008 1.64819C11.8733 1.5135 11.6905 1.43784 11.5 1.43784C11.3094 1.43784 11.1267 1.5135 10.9919 1.64819L7.39817 5.24194C7.26907 5.37782 7.19816 5.55877 7.20056 5.74619C7.20296 5.93361 7.27848 6.11268 7.41102 6.24522C7.54356 6.37776 7.72263 6.45328 7.91005 6.45568C8.09747 6.45808 8.27841 6.38717 8.4143 6.25807L10.7812 3.89158V7.90625H12.2187V3.89158Z" fill="#919191"/>
</svg>
