<svg width="24" height="24" viewBox="0 0 24 24" fill="none" xmlns="http://www.w3.org/2000/svg">
<path d="M14.3632 1.66407C13.6592 1.44167 12.9104 1.32007 12.1328 1.32007C9.86401 1.32007 7.83361 2.34567 6.48001 3.95687L9.96801 6.89127L14.3632 1.66407Z" fill="#1A73E8"/>
<path d="M6.47841 3.95679C5.40001 5.23999 4.74881 6.89599 4.74881 8.70239C4.74881 10.0912 5.02561 11.216 5.48001 12.224L9.96641 6.89119L6.47841 3.95679Z" fill="#EA4335"/>
<path d="M12.1328 5.87994C13.6928 5.87994 14.9568 7.14394 14.9568 8.70394C14.9568 9.39834 14.7056 10.0351 14.2896 10.5263C14.2896 10.5263 16.52 7.87354 18.6848 5.30074C17.7904 3.58074 16.24 2.25754 14.3648 1.66394L9.9664 6.89114C10.4848 6.27194 11.2624 5.87994 12.1328 5.87994Z" fill="#4285F4"/>
<path d="M12.1328 11.5263C10.5728 11.5263 9.30881 10.2623 9.30881 8.70233C9.30881 8.01273 9.55681 7.38073 9.96641 6.88953L5.48001 12.2239C6.24641 13.9247 7.52161 15.2895 8.83521 17.0095L14.288 10.5263C13.7712 11.1375 12.9968 11.5263 12.1328 11.5263Z" fill="#FBBC04"/>
<path d="M14.1808 18.7792C16.6432 14.928 19.5152 13.1792 19.5152 8.70238C19.5152 7.47518 19.2144 6.31838 18.6848 5.30078L8.83679 17.0096C9.25439 17.5568 9.67519 18.1392 10.0864 18.7808C11.584 21.0944 11.168 22.4816 12.1344 22.4816C13.0976 22.4816 12.6832 21.0928 14.1808 18.7792Z" fill="#34A853"/>
</svg>
