<svg width="26" height="26" viewBox="0 0 26 26" fill="none" xmlns="http://www.w3.org/2000/svg">
<path d="M13 11.375C13.8975 11.375 14.625 10.6475 14.625 9.75C14.625 8.85254 13.8975 8.125 13 8.125C12.1025 8.125 11.375 8.85254 11.375 9.75C11.375 10.6475 12.1025 11.375 13 11.375Z" fill="#E3D1BE"/>
<path d="M13 1.625C8.52008 1.625 4.875 5.11113 4.875 9.39453C4.875 11.4344 5.8048 14.1471 7.63852 17.4576C9.11117 20.1155 10.8149 22.5189 11.701 23.7148C11.8508 23.9192 12.0465 24.0854 12.2725 24.1999C12.4984 24.3145 12.7482 24.3742 13.0015 24.3742C13.2549 24.3742 13.5046 24.3145 13.7306 24.1999C13.9565 24.0854 14.1523 23.9192 14.302 23.7148C15.1866 22.5189 16.8919 20.1155 18.3645 17.4576C20.1952 14.1482 21.125 11.4354 21.125 9.39453C21.125 5.11113 17.4799 1.625 13 1.625ZM13 13C12.3572 13 11.7289 12.8094 11.1944 12.4523C10.6599 12.0952 10.2434 11.5876 9.99739 10.9937C9.75141 10.3999 9.68705 9.74639 9.81245 9.11596C9.93785 8.48552 10.2474 7.90642 10.7019 7.4519C11.1564 6.99738 11.7355 6.68785 12.366 6.56245C12.9964 6.43705 13.6499 6.50141 14.2437 6.74739C14.8376 6.99338 15.3452 7.40994 15.7023 7.9444C16.0594 8.47886 16.25 9.10721 16.25 9.75C16.2491 10.6117 15.9063 11.4378 15.2971 12.0471C14.6878 12.6563 13.8617 12.9991 13 13Z" fill="#E3D1BE"/>
</svg>
