<svg width="28" height="28" viewBox="0 0 28 28" fill="none" xmlns="http://www.w3.org/2000/svg">
<path d="M2.625 14C2.625 20.282 7.71805 25.375 14 25.375C20.282 25.375 25.375 20.282 25.375 14C25.375 7.71805 20.282 2.625 14 2.625C7.71805 2.625 2.625 7.71805 2.625 14ZM16.6999 14L12.069 9.36852C11.9118 9.20309 11.8255 8.98281 11.8284 8.75464C11.8313 8.52647 11.9233 8.30847 12.0846 8.14712C12.246 7.98577 12.464 7.89383 12.6921 7.89091C12.9203 7.88799 13.1406 7.97432 13.306 8.13148L18.556 13.3815C18.72 13.5456 18.8121 13.768 18.8121 14C18.8121 14.232 18.72 14.4544 18.556 14.6185L13.306 19.8685C13.1406 20.0257 12.9203 20.112 12.6921 20.1091C12.464 20.1062 12.246 20.0142 12.0846 19.8529C11.9233 19.6915 11.8313 19.4735 11.8284 19.2454C11.8255 19.0172 11.9118 18.7969 12.069 18.6315L16.6999 14Z" fill="#2F2519"/>
</svg>
