<svg width="61" height="19" viewBox="0 0 61 19" fill="none" xmlns="http://www.w3.org/2000/svg">
<path d="M11.3464 13.6224C9.98356 14.0793 8.54923 14.318 7.10157 14.3296C5.20402 14.4302 3.3427 13.8166 1.93316 12.625C0.627502 11.3283 -0.0673219 9.59626 0.00511514 7.81691C0.0251306 3.96531 2.85566 1.14672 7.48841 1.14672C8.66921 1.12089 9.84238 1.32395 10.9347 1.74255L10.5048 3.1033C9.54131 2.71232 8.49765 2.52262 7.44743 2.54845C4.60165 2.34004 2.11318 4.3269 1.89027 6.98696C1.8693 7.23901 1.8693 7.49284 1.89027 7.74477C1.89027 11.0202 4.00417 12.9562 7.22261 12.9562C8.0336 12.9981 8.84565 12.8805 9.60517 12.6125V8.7564H6.79275V7.41257H11.3464V13.6224V13.6224Z" fill="#415E72"/>
<path d="M23.1022 9.48319C23.1022 12.9145 20.5585 14.408 18.1587 14.408C15.4721 14.408 13.402 12.5699 13.402 9.63549C13.402 6.53279 15.5741 4.71069 18.3217 4.71069C21.176 4.71069 23.1022 6.64768 23.1022 9.48319ZM15.2271 9.57849C15.2271 11.6108 16.4785 13.1406 18.2407 13.1406C19.9657 13.1406 21.2571 11.6267 21.2571 9.53752C21.2571 7.96658 20.4156 5.97538 18.2807 5.97538C16.1458 5.97538 15.2271 7.81695 15.2271 9.57849Z" fill="#25B6D2"/>
<path d="M34.3691 9.48319C34.3691 12.9145 31.8255 14.408 29.4256 14.408C26.739 14.408 24.669 12.5699 24.669 9.63549C24.669 6.53279 26.841 4.71069 29.5886 4.71069C32.442 4.71069 34.3691 6.64768 34.3691 9.48319ZM26.4941 9.57849C26.4941 11.6108 27.7454 13.1406 29.5076 13.1406C31.2326 13.1406 32.524 11.6267 32.524 9.53752C32.524 7.96658 31.6825 5.97538 29.5476 5.97538C27.4128 5.97538 26.4931 7.81695 26.4941 9.57849Z" fill="#415E72"/>
<path d="M45.2024 4.92172C45.1614 5.59414 45.1204 6.3466 45.1204 7.47312V12.8565C45.1204 14.9841 44.6677 16.2878 43.7052 17.0901C42.6921 17.8684 41.4045 18.2648 40.095 18.2015C38.9399 18.2282 37.7992 17.9646 36.7917 17.4366L37.2444 16.1524C38.126 16.6387 39.1325 16.8898 40.156 16.8791C42.0002 16.8791 43.3544 15.9779 43.3544 13.6419V12.608H43.3134C42.6358 13.6169 41.4302 14.2083 40.1569 14.1567C37.6953 14.1567 35.9331 12.1974 35.9331 9.63265C35.9331 6.49166 38.1251 4.70786 40.4028 4.70786C41.6818 4.6375 42.8893 5.26628 43.4983 6.31977H43.5393L43.6213 4.91805L45.2024 4.92172ZM43.3344 8.58183C43.3449 8.32355 43.3106 8.06527 43.2324 7.8169C42.9188 6.75896 41.8848 6.02865 40.7097 6.03578C38.9876 6.03578 37.7553 7.39653 37.7553 9.54281C37.7553 11.3649 38.7407 12.878 40.6878 12.878C41.8343 12.8717 42.8456 12.1761 43.1905 11.1547C43.2877 10.8626 43.3363 10.5589 43.3334 10.2535L43.3344 8.58183Z" fill="#E04F5F"/>
<path d="M48.1197 0.591919H49.9305V14.1977H48.1197V0.591919Z" fill="#415E72"/>
<path d="M53.9666 9.86505C53.8131 11.5001 55.1074 12.9419 56.8572 13.0844C57.0278 13.0987 57.1984 13.0996 57.369 13.088C58.3115 13.1156 59.2503 12.9526 60.1195 12.6097L60.4264 13.8173C59.3809 14.2234 58.2553 14.4185 57.1231 14.3908C54.0686 14.3908 52.2444 12.5144 52.2444 9.71453C52.2444 6.91465 54.0076 4.71326 56.8981 4.71326C60.1385 4.71326 60.9962 7.37688 60.9962 9.08409C60.9933 9.34593 60.9724 9.60777 60.9352 9.86772L53.9666 9.86505ZM59.2578 8.65748C59.2778 7.58885 58.787 5.91726 56.7552 5.91726C54.931 5.91726 54.1305 7.49088 53.9914 8.65748H59.2578Z" fill="#25B6D2"/>
</svg>
