<svg width="24" height="29" viewBox="0 0 24 29" fill="none" xmlns="http://www.w3.org/2000/svg">
<path d="M14.1124 26.8521H9.51243C9.20743 26.8521 8.91493 26.9504 8.69926 27.1255C8.4836 27.3005 8.36244 27.5379 8.36244 27.7854C8.36244 28.033 8.4836 28.2704 8.69926 28.4454C8.91493 28.6204 9.20743 28.7187 9.51243 28.7187H14.1124C14.4174 28.7187 14.7099 28.6204 14.9256 28.4454C15.1412 28.2704 15.2624 28.033 15.2624 27.7854C15.2624 27.5379 15.1412 27.3005 14.9256 27.1255C14.7099 26.9504 14.4174 26.8521 14.1124 26.8521ZM15.2624 24.0521H8.36244C8.05744 24.0521 7.76494 24.1504 7.54927 24.3255C7.33361 24.5005 7.21245 24.7379 7.21245 24.9854C7.21245 25.233 7.33361 25.4704 7.54927 25.6454C7.76494 25.8204 8.05744 25.9188 8.36244 25.9188H15.2624C15.5674 25.9188 15.8599 25.8204 16.0756 25.6454C16.2912 25.4704 16.4124 25.233 16.4124 24.9854C16.4124 24.7379 16.2912 24.5005 16.0756 24.3255C15.8599 24.1504 15.5674 24.0521 15.2624 24.0521ZM19.9644 3.44236C17.8032 1.68594 14.908 0.718776 11.8124 0.718776C10.3012 0.715853 8.80419 0.955271 7.40733 1.42328C6.01047 1.89129 4.7413 2.57866 3.67272 3.44593C2.60413 4.31319 1.75719 5.34325 1.18054 6.47694C0.603895 7.61063 0.3089 8.82561 0.312502 10.0521C0.312502 12.7716 1.5969 15.3155 3.83435 17.0311L4.14772 17.2697C5.44218 18.252 7.21245 19.5978 7.21245 20.7854V22.1854C7.21245 22.433 7.33361 22.6704 7.54927 22.8454C7.76494 23.0204 8.05744 23.1188 8.36244 23.1188H10.0874C10.2399 23.1188 10.3862 23.0696 10.494 22.9821C10.6018 22.8946 10.6624 22.7759 10.6624 22.6521V15.8166C10.6625 15.7222 10.6272 15.6301 10.5614 15.5523C10.4956 15.4745 10.4022 15.4147 10.2937 15.3808C9.62965 15.161 8.9988 14.8801 8.41347 14.5438C8.28194 14.4756 8.16887 14.3864 8.08117 14.2816C7.99346 14.1769 7.93296 14.0587 7.90333 13.9343C7.8737 13.81 7.87557 13.682 7.90882 13.5583C7.94208 13.4345 8.00602 13.3175 8.09676 13.2145C8.1875 13.1114 8.30314 13.0244 8.43663 12.9588C8.57012 12.8932 8.71867 12.8503 8.87324 12.8328C9.02781 12.8153 9.18515 12.8234 9.33569 12.8568C9.48623 12.8903 9.62682 12.9482 9.7489 13.0271C10.2808 13.3328 11.305 13.7854 11.8124 13.7854C12.3198 13.7854 13.3441 13.3316 13.8774 13.0271C14.1257 12.9004 14.4243 12.8555 14.712 12.9016C14.9998 12.9477 15.255 13.0812 15.4254 13.275C15.5958 13.4687 15.6686 13.708 15.6288 13.9439C15.589 14.1797 15.4397 14.3943 15.2114 14.5438C14.6259 14.8795 13.9951 15.1598 13.3311 15.3791C13.2226 15.413 13.1292 15.4727 13.0634 15.5505C12.9976 15.6283 12.9624 15.7205 12.9624 15.8148V22.6521C12.9624 22.7759 13.023 22.8946 13.1308 22.9821C13.2386 23.0696 13.3849 23.1188 13.5374 23.1188H15.2624C15.5674 23.1188 15.8599 23.0204 16.0756 22.8454C16.2912 22.6704 16.4124 22.433 16.4124 22.1854V20.7854C16.4124 19.6258 18.1632 18.2812 19.4419 17.2988L19.7948 17.027C22.0962 15.2438 23.3123 12.8293 23.3123 10.0521C23.3199 8.8255 23.028 7.60982 22.4534 6.47532C21.8787 5.34082 21.0328 4.30998 19.9644 3.44236V3.44236Z" fill="#919191"/>
</svg>
