<svg width="28" height="23" viewBox="0 0 28 23" fill="none" xmlns="http://www.w3.org/2000/svg">
<path d="M7.5386 11.5C7.5386 11.2227 7.65206 10.9568 7.85403 10.7608C8.05599 10.5647 8.32992 10.4545 8.61554 10.4545H18.308V3.65909C18.308 1.56818 16.0337 0 14.0003 0H3.7693C2.76995 0.00103776 1.81183 0.386881 1.10518 1.07287C0.398534 1.75886 0.00106902 2.68896 0 3.65909V19.3409C0.00106902 20.311 0.398534 21.2411 1.10518 21.9271C1.81183 22.6131 2.76995 22.999 3.7693 23H14.5387C15.5381 22.999 16.4962 22.6131 17.2028 21.9271C17.9095 21.2411 18.307 20.311 18.308 19.3409V12.5455H8.61554C8.32992 12.5455 8.05599 12.4353 7.85403 12.2392C7.65206 12.0432 7.5386 11.7773 7.5386 11.5ZM27.6848 10.761L22.3001 5.53372C22.0965 5.34594 21.8254 5.24279 21.5446 5.24628C21.2637 5.24978 20.9954 5.35962 20.7968 5.55241C20.5982 5.74519 20.4851 6.00566 20.4815 6.27827C20.4779 6.55088 20.5841 6.81408 20.7776 7.01173L24.3234 10.4545H18.308V12.5455H24.3234L20.7776 15.9883C20.6734 16.0844 20.59 16.1998 20.5325 16.3276C20.4749 16.4555 20.4443 16.5933 20.4425 16.7328C20.4407 16.8723 20.4676 17.0108 20.5218 17.1401C20.5759 17.2693 20.6562 17.3868 20.7578 17.4854C20.8595 17.5841 20.9804 17.662 21.1136 17.7146C21.2468 17.7672 21.3894 17.7934 21.5331 17.7916C21.6769 17.7898 21.8188 17.7601 21.9505 17.7042C22.0822 17.6483 22.2011 17.5674 22.3001 17.4663L27.6848 12.239C27.8866 12.043 28 11.7772 28 11.5C28 11.2228 27.8866 10.957 27.6848 10.761V10.761Z" fill="black"/>
</svg>
