<svg width="23" height="28" viewBox="0 0 23 28" fill="none" xmlns="http://www.w3.org/2000/svg">
<path d="M13.7999 26.1333H9.19996C8.89497 26.1333 8.60246 26.2317 8.3868 26.4067C8.17113 26.5817 8.04997 26.8191 8.04997 27.0667C8.04997 27.3142 8.17113 27.5516 8.3868 27.7266C8.60246 27.9017 8.89497 28 9.19996 28H13.7999C14.1049 28 14.3974 27.9017 14.6131 27.7266C14.8288 27.5516 14.9499 27.3142 14.9499 27.0667C14.9499 26.8191 14.8288 26.5817 14.6131 26.4067C14.3974 26.2317 14.1049 26.1333 13.7999 26.1333ZM14.9499 23.3333H8.04997C7.74497 23.3333 7.45247 23.4317 7.2368 23.6067C7.02114 23.7817 6.89998 24.0191 6.89998 24.2667C6.89998 24.5142 7.02114 24.7516 7.2368 24.9266C7.45247 25.1017 7.74497 25.2 8.04997 25.2H14.9499C15.2549 25.2 15.5474 25.1017 15.7631 24.9266C15.9788 24.7516 16.0999 24.5142 16.0999 24.2667C16.0999 24.0191 15.9788 23.7817 15.7631 23.6067C15.5474 23.4317 15.2549 23.3333 14.9499 23.3333ZM19.6519 2.72361C17.4907 0.967192 14.5956 2.6451e-05 11.4999 2.6451e-05C9.98874 -0.00289689 8.49172 0.236521 7.09486 0.704529C5.698 1.17254 4.42883 1.85991 3.36025 2.72718C2.29166 3.59444 1.44472 4.6245 0.868075 5.75819C0.291426 6.89188 -0.00356936 8.10686 3.25912e-05 9.33335C3.25912e-05 12.0528 1.28443 14.5968 3.52188 16.3123L3.83525 16.5509C5.12971 17.5333 6.89998 18.879 6.89998 20.0667V21.4667C6.89998 21.7142 7.02114 21.9516 7.2368 22.1266C7.45247 22.3017 7.74497 22.4 8.04997 22.4H9.77496C9.92746 22.4 10.0737 22.3508 10.1815 22.2633C10.2894 22.1758 10.35 22.0571 10.35 21.9333V15.0978C10.35 15.0035 10.3148 14.9113 10.2489 14.8335C10.1831 14.7557 10.0898 14.696 9.98124 14.6621C9.31718 14.4422 8.68633 14.1614 8.101 13.825C7.96947 13.7568 7.8564 13.6677 7.7687 13.5629C7.681 13.4581 7.62049 13.3399 7.59086 13.2156C7.56123 13.0912 7.5631 12.9633 7.59635 12.8395C7.62961 12.7158 7.69355 12.5988 7.78429 12.4957C7.87503 12.3927 7.99067 12.3057 8.12416 12.2401C8.25765 12.1745 8.4062 12.1316 8.56077 12.114C8.71534 12.0965 8.87268 12.1047 9.02322 12.1381C9.17376 12.1715 9.31435 12.2294 9.43643 12.3083C9.9683 12.614 10.9925 13.0667 11.4999 13.0667C12.0074 13.0667 13.0316 12.6128 13.5649 12.3083C13.8132 12.1816 14.1118 12.1367 14.3996 12.1828C14.6873 12.2289 14.9425 12.3625 15.1129 12.5562C15.2834 12.75 15.3561 12.9893 15.3163 13.2251C15.2765 13.461 15.1272 13.6756 14.8989 13.825C14.3135 14.1608 13.6826 14.441 13.0187 14.6603C12.9101 14.6942 12.8168 14.754 12.7509 14.8318C12.6851 14.9096 12.6499 15.0017 12.6499 15.0961V21.9333C12.6499 22.0571 12.7105 22.1758 12.8183 22.2633C12.9262 22.3508 13.0724 22.4 13.2249 22.4H14.9499C15.2549 22.4 15.5474 22.3017 15.7631 22.1266C15.9788 21.9516 16.0999 21.7142 16.0999 21.4667V20.0667C16.0999 18.907 17.8508 17.5624 19.1294 16.5801L19.4823 16.3083C21.7837 14.525 22.9999 12.1106 22.9999 9.33335C23.0075 8.10675 22.7155 6.89107 22.1409 5.75657C21.5662 4.62207 20.7203 3.59123 19.6519 2.72361V2.72361Z" fill="#E3D1BE"/>
</svg>
