<svg width="24" height="24" viewBox="0 0 24 24" fill="none" xmlns="http://www.w3.org/2000/svg">
<path d="M3.51 3.00039V3C3.51 2.17287 4.1794 1.5 5 1.5H19C19.8237 1.5 20.4998 2.17593 20.5 2.99961C20.5 2.99974 20.5 2.99987 20.5 3L20.49 15.9296V15.93C20.49 16.4466 20.2287 16.9042 19.8307 17.1753C19.8301 17.1756 19.8296 17.176 19.8291 17.1764L11.9998 22.3991L4.16094 17.1764C4.16039 17.176 4.15983 17.1756 4.15928 17.1753C3.7613 16.9042 3.50006 16.4466 3.5 15.9302C3.5 15.9301 3.5 15.9301 3.5 15.93L3.51 3.00039ZM9.64645 16.3536C9.84171 16.5488 10.1583 16.5488 10.3536 16.3536L19.3536 7.35355C19.5483 7.15878 19.5489 6.84316 19.3548 6.6477L17.9448 5.2277C17.8511 5.13338 17.7238 5.08024 17.5909 5.08C17.458 5.07977 17.3304 5.13246 17.2364 5.22645L9.99951 12.4634L6.76306 9.23595C6.56772 9.04116 6.25152 9.04138 6.05645 9.23645L4.64645 10.6464C4.45118 10.8417 4.45118 11.1583 4.64645 11.3536L9.64645 16.3536Z" fill="white" stroke="#047CFC" stroke-linecap="square" stroke-linejoin="round"/>
</svg>
