<svg width="31" height="31" viewBox="0 0 31 31" fill="none" xmlns="http://www.w3.org/2000/svg">
<g filter="url(#filter0_d)">
<path d="M26.7754 0.29028C26.6947 0.20151 26.5967 0.130041 26.4875 0.0801928C26.3783 0.0303446 26.2602 0.00315207 26.1402 0.000258134C26.0202 -0.00263581 25.9008 0.018829 25.7894 0.0633556C25.6779 0.107882 25.5766 0.174546 25.4916 0.259319L24.8077 0.939918C24.7248 1.02286 24.6783 1.13532 24.6783 1.25257C24.6783 1.36983 24.7248 1.48229 24.8077 1.56523L25.4347 2.19109C25.4758 2.23238 25.5247 2.26515 25.5784 2.28751C25.6322 2.30986 25.6899 2.32137 25.7482 2.32137C25.8064 2.32137 25.8641 2.30986 25.9179 2.28751C25.9717 2.26515 26.0206 2.23238 26.0617 2.19109L26.7285 1.52763C27.0657 1.19093 27.0972 0.642467 26.7754 0.29028Z" fill="#E3D1BE"/>
<path d="M23.425 2.32213L13.4444 12.2851C13.3838 12.3454 13.3399 12.4202 13.3166 12.5024L12.855 13.8774C12.8439 13.9147 12.8431 13.9543 12.8527 13.992C12.8623 14.0298 12.8819 14.0642 12.9094 14.0917C12.9369 14.1192 12.9713 14.1388 13.0091 14.1484C13.0468 14.158 13.0864 14.1572 13.1237 14.1461L14.4976 13.6845C14.5798 13.6612 14.6546 13.6173 14.7149 13.5567L24.6778 3.57496C24.77 3.4818 24.8217 3.35604 24.8217 3.22499C24.8217 3.09394 24.77 2.96817 24.6778 2.87501L24.1277 2.32213C24.0344 2.22911 23.9081 2.17688 23.7763 2.17688C23.6446 2.17688 23.5183 2.22911 23.425 2.32213Z" fill="#E3D1BE"/>
<path d="M22.7062 8.05331L15.9671 14.8057C15.7067 15.0668 15.3865 15.2605 15.0344 15.3702L13.6025 15.8495C13.2626 15.9455 12.9033 15.9491 12.5616 15.86C12.2199 15.7709 11.9082 15.5923 11.6585 15.3426C11.4088 15.0929 11.2302 14.7811 11.141 14.4394C11.0519 14.0977 11.0556 13.7384 11.1515 13.3986L11.6309 11.9666C11.7402 11.6146 11.9336 11.2945 12.1943 11.0339L18.9466 4.29369C19.0085 4.23187 19.0507 4.15307 19.0678 4.06728C19.0849 3.98149 19.0762 3.89255 19.0428 3.8117C19.0093 3.73086 18.9527 3.66175 18.8799 3.61311C18.8072 3.56448 18.7217 3.53849 18.6342 3.53845H7.09614C6.27499 3.53845 5.48748 3.86465 4.90684 4.44529C4.3262 5.02594 4 5.81345 4 6.63461V19.9038C4 20.725 4.3262 21.5125 4.90684 22.0931C5.48748 22.6738 6.27499 23 7.09614 23H20.3653C21.1865 23 21.974 22.6738 22.5546 22.0931C23.1353 21.5125 23.4615 20.725 23.4615 19.9038V8.36569C23.4614 8.2782 23.4354 8.1927 23.3868 8.11998C23.3382 8.04726 23.269 7.9906 23.1882 7.95717C23.1074 7.92373 23.0184 7.91502 22.9326 7.93213C22.8468 7.94924 22.768 7.99141 22.7062 8.05331Z" fill="#E3D1BE"/>
</g>
<defs>
<filter id="filter0_d" x="0" y="0" width="31" height="31" filterUnits="userSpaceOnUse" color-interpolation-filters="sRGB">
<feFlood flood-opacity="0" result="BackgroundImageFix"/>
<feColorMatrix in="SourceAlpha" type="matrix" values="0 0 0 0 0 0 0 0 0 0 0 0 0 0 0 0 0 0 127 0"/>
<feOffset dy="4"/>
<feGaussianBlur stdDeviation="2"/>
<feColorMatrix type="matrix" values="0 0 0 0 0 0 0 0 0 0 0 0 0 0 0 0 0 0 0.25 0"/>
<feBlend mode="normal" in2="BackgroundImageFix" result="effect1_dropShadow"/>
<feBlend mode="normal" in="SourceGraphic" in2="effect1_dropShadow" result="shape"/>
</filter>
</defs>
</svg>
